<svg xmlns="http://www.w3.org/2000/svg" viewBox="0 0 12.84 5.75"><g fill="#fff"><path d="M4.72 5.37a.38.38 0 01-.38.4h-.56a.38.38 0 01-.38-.38V3.43H1.31v1.94a.38.38 0 01-.38.4H.38a.38.38 0 01-.38-.4v-5a.38.38 0 01.38-.38h.56a.38.38 0 01.38.38V2.2h2.09V.38A.38.38 0 013.79 0h.56a.38.38 0 01.38.38zM7.38 5.37a.38.38 0 01-.37.4h-.56a.38.38 0 01-.38-.38v-5a.38.38 0 01.38-.38h.56a.38.38 0 01.38.38zM10.18 5.77a.38.38 0 01-.38-.38V1.23H8.46a.38.38 0 01-.38-.38V.38A.38.38 0 018.46 0h4a.38.38 0 01.38.38v.48a.38.38 0 01-.38.38h-1.34v4.13a.38.38 0 01-.38.38z"/></g></svg>