<svg xmlns="http://www.w3.org/2000/svg" viewBox="0 0 229.4 192.7"><path d="M192.3 55.2l-91.8-44.8c-1.7-.8-3.6-.8-5.3 0L3.4 55.2c-2.1 1-3.4 3.1-3.4 5.4V64c0 3.3 2.7 6 6 6h183.7c3.3 0 6-2.7 6-6v-3.4c0-2.3-1.3-4.3-3.4-5.4zm-94.5 1.7c-5.9 0-10.8-4.8-10.8-10.8s4.8-10.8 10.8-10.8c5.9 0 10.8 4.8 10.8 10.8s-4.8 10.8-10.8 10.8zM118 75.6v5.3c0 2.3-1.4 4.5-3.5 5.5l-2.1 1v60.4h-29V87.3l-2.1-1c-2.1-1-3.5-3.1-3.5-5.5v-5.3c-.1.1 40.2.1 40.2.1zm57.2 0v5.3c0 2.3-1.4 4.5-3.5 5.5l-2.1 1v60.4h-29V87.3l-2.1-1c-2.1-1-3.5-3.1-3.5-5.5v-5.3c0 .1 40.2.1 40.2.1zm-114.6 0v5.3c0 2.3-1.4 4.5-3.5 5.5l-2.1 1v60.4H26V87.3l-2.1-1c-2.1-1-3.5-3.1-3.5-5.5v-5.3c-.1.1 40.2.1 40.2.1zm135.1 107.1v3.9c0 3.3-2.7 6-6 6H6c-3.3 0-6-2.7-6-6v-3.9c0-3.3 2.7-6 6-6h183.7c3.3 0 6 2.7 6 6zm-12.6-22.4v3.9c0 3.3-2.7 6-6 6H18.6c-3.3 0-6-2.7-6-6v-3.9c0-3.3 2.7-6 6-6H177c3.4 0 6.1 2.6 6.1 6z" fill="#fff"/><path d="M226 45.4L134.2.6c-1.7-.8-3.6-.8-5.3 0l-17.4 8.5L195 49.9c4 2 6.6 5.9 6.7 10.3h21.7c3.3 0 6-2.7 6-6v-3.4c0-2.3-1.3-4.4-3.4-5.4zm-17 20.4v5.3c0 2.3-1.4 4.5-3.5 5.4l-2.1 1v60.4h-27.7V91.1c3.5-2.2 5.6-6 5.6-10.2V76h8.4c6 0 11-4.4 11.9-10.2h7.4zm20.4 107.1v3.9c0 3.3-2.7 6-6 6h-21.7v-.1c0-6.6-5.4-12-12-12h-2.6c.8-1.2 1.3-2.4 1.6-3.8h34.7c3.3 0 6 2.7 6 6zm-12.6-22.5v3.9c0 3.3-2.7 6-6 6h-21.7v-.1c0-6.6-5.4-12-12-12h-1.4v-3.8h35.1c3.3 0 6 2.7 6 6z" opacity=".5" fill="#fff"/></svg>