<svg xmlns="http://www.w3.org/2000/svg" viewBox="0 0 113.6 36.008"><path d="M25.3 29.366l-7.5-10.5c-.43-.6-.49-1.41-.18-2.07-1.47 2.05-2.93 4.09-4.39 6.14-3.13 4.37-6.24 8.74-9.33 13.13.12.01.27.01.39.01 2.6 0 17.5-.1 17.5-.1 3.5 0 5.51-3.91 3.51-6.61z" fill="#06cc76"/><path d="M113.6 21.566c0-2.4-.8-4.5-2.3-6.1-1.6-1.7-3.5-2.5-5.9-2.5-2.5 0-4.5.8-6.1 2.4-1.6 1.6-2.4 3.7-2.4 6.1 0 2.4.8 4.5 2.4 6.1 1.6 1.6 3.7 2.4 6.4 2.4 3.2 0 5.5-1.2 7.1-3.5l-3.4-1.9c-.8 1.1-2 1.6-3.6 1.6-2.46 0-3.95-.97-4.57-2.9h12.17c.1-.6.2-1.2.2-1.7zm-12.4-1.6c.2-1 .7-1.9 1.5-2.4.8-.6 1.7-.9 2.8-.9.9 0 1.8.3 2.5.8.8.6 1.3 1.4 1.5 2.5h-8.3zm-11.5-13.1v8.4c-1.2-1.6-2.9-2.4-5.2-2.4-2.2 0-4.1.9-5.6 2.5-1.5 1.7-2.3 3.7-2.3 6.1 0 2.4.8 4.5 2.3 6.1 1.6 1.7 3.4 2.5 5.6 2.5s4-.8 5.2-2.4v1.8h4.2v-22.6h-4.2zm-1.3 17.9c-.8.9-1.9 1.3-3.2 1.3-1.3 0-2.3-.4-3.2-1.3-.8-.9-1.2-2-1.3-3.3 0-1.4.4-2.4 1.3-3.3.8-.9 1.9-1.3 3.2-1.3 1.3 0 2.4.4 3.2 1.3.9.9 1.3 2 1.3 3.3 0 1.4-.5 2.4-1.3 3.3zm-16.4-9.4c-1.7-1.7-3.7-2.5-6.1-2.5-2.4 0-4.5.9-6.1 2.5-1.7 1.7-2.5 3.7-2.5 6.1 0 2.4.8 4.5 2.5 6.1 1.7 1.7 3.7 2.5 6.1 2.5 2.4 0 4.4-.9 6.1-2.5 1.7-1.7 2.5-3.7 2.5-6.1 0-2.4-.8-4.5-2.5-6.1zm-3 9.3c-.8.9-1.8 1.3-3.1 1.3-1.2 0-2.3-.5-3.1-1.3s-1.2-1.9-1.2-3.2.4-2.4 1.2-3.2c.8-.9 1.8-1.3 3.1-1.3 1.2 0 2.3.5 3.1 1.3.9.8 1.3 1.9 1.3 3.2s-.5 2.4-1.3 3.2zm-19.6-.1c-1 .6-2.2.9-3.5.9-2.2 0-4-.7-5.3-2.1-1.3-1.3-2-3.1-2-5.3 0-2.2.7-4 2-5.4s3.1-2.1 5.3-2.1c1.3 0 2.5.3 3.5.9 1 .6 1.8 1.4 2.4 2.4l3.8-2.2c-1-1.6-2.4-2.9-4.1-3.9-1.8-.9-3.7-1.4-5.7-1.4-3.4 0-6.2 1.1-8.4 3.4s-3.3 5.1-3.3 8.4 1.1 6.1 3.3 8.4c2.2 2.3 5 3.4 8.4 3.4 2.1 0 4-.4 5.8-1.6 1.7-1 3-2.3 4-3.9l-3.8-2.2c-.6.9-1.4 1.7-2.4 2.3zM0 31.866c0 2.3 1.5 4 3.9 4.2 6.9-9.8 13.9-19.5 20.9-29.3 2-2.8 0-6.7-3.5-6.7h-17c-2.4 0-4.3 1.9-4.3 4.2v27.6z" fill="#fff"/></svg>