<svg xmlns="http://www.w3.org/2000/svg" viewBox="0 0 164.6 47.6"><path d="M141 31.4v-.8c0-.2.2-1 .2-1.2.1-.3.3-.7.5-1 .3-.5 1-1 1.8-1h.2c1.6 0 2.4 1.7 2.4 3.3v.9c0 .7-.4 1.7-.7 2.1-.4.5-.9 1-1.8 1-1.7.2-2.6-1.6-2.6-3.3zm-47.6-3.6c.1 0 .1 0 .1-.1v-.3c0-.2-.8-.1-1-.1h-1.1c-.3 0-.3 0-.3-.3v-.6-1.1c-.3.2-2.8 2.3-2.8 2.4v.2h1.1v5.2c0 1.7 1 2.4 2.7 2.4.4 0 1.8-.3 1.8-.6v-.5c-.3 0-.8.5-1.7.5-.8 0-1.2-.6-1.2-1.4v-5.7h2.4zm38.6-2.4c0-.4.4-.9.6-1.2.2-.2.9-.5 1.3-.5h.3c.6 0 1.1.1 1.5.3.2.1 1.1.7 1.1.7v-1c0-.3-1-.5-1.2-.6l-1.1-.1h-.6c-1 0-1.7.3-2.3.8-.3.2-.5.5-.7.8-.2.3-.3.9-.4 1.1V26.5c0 3.6 5.4 3.1 5.4 6v.3c0 1.2-1 2-2.2 2h-.2c-.7 0-1.3-.3-1.7-.5-.5-.3-.8-.7-1.2-1v1.3c.9.5 1.6.8 2.9.8h.3c1.2 0 2-.4 2.6-.9.5-.4 1.2-1.4 1.2-2.3v-.9c0-.2-.3-.9-.3-1.1-.2-.3-.3-.5-.6-.8-.4-.4-1.1-.8-1.6-1.1-.6-.3-1.2-.6-1.7-1-.4-.2-1.1-1-1.1-1.6l-.3-.3zm-15 6.8c0-.7.3-1.5.7-1.8l3.3 3.9c-.4.2-.9.6-1.6.6h-.4c-1.2 0-2.1-1.3-2.1-2.5l.1-.2zm1.9-2.9c-.1 0-.5-.7-.6-.8-.2-.3-.3-.6-.4-1-.1-.4 0-.8.2-1.1.1-.2.5-.5.8-.5h.3c.6 0 1 .6 1 1.2v.3c0 .5-.2.9-.4 1.2-.2.2-.7.7-.9.7zm.3.4c.8-.4 2.1-1.2 2.1-2.4v-.2c0-1-1-1.7-2-1.7h-.3l-.6.1c-.1 0-.6.2-.7.3-.3.1-.4.3-.6.5-.3.3-.6.9-.6 1.5 0 .5.1 1 .3 1.3.2.4.4.6.7.9-.1.1-.6.3-.7.5-.3.2-.4.3-.6.5-.3.3-.7 1-.7 1.6v.7c0 .3.2.8.3 1 .1.2.4.5.7.7.5.3 1.2.6 2 .6h.6c.6 0 .9-.1 1.4-.3.5-.2.7-.4 1-.6.1.1.6.7.7.7h2l-1.5-1.8c.2-.3.4-.6.6-1 .1-.4.3-.8.3-1.3v-.6l-.1-.7c-.1-.1-.1-.3-.2-.3h-1c0 .2.2.5.3.8.1.3.1.5.1.9v.4l-.1.6-.3.7-3.1-3.4zm41.4-1.1c0-.7.7-1.1 1.4-1.1h.4c.9 0 1.3.5 1.9.8v-.9c-.4-.3-1.4-.5-2.1-.5-1.5 0-2.9.8-2.9 2.3 0 2.7 4 2.1 4 4v.2c0 .4-.2.7-.4.9-.4.4-.5.2-.8.5h-1.2c-.1-.1-.7-.3-.9-.4-.2-.1-.7-.5-.7-.5V35c.3.1.7.3 1 .3.4.1.8.1 1.2.1 1.7 0 3.2-.9 3.2-2.5v-.5c-.1-.1-.1-.5-.3-.7-.1-.2-.3-.4-.4-.5-.3-.3-.7-.5-1.1-.7-.6-.3-2.2-.8-2.2-1.6l-.1-.3zm-87.7-4.4h1.6c1.2 0 2.1 1.2 2.1 2.3v.7c0 1.4-.9 2.5-2.3 2.5H73c-.1 0-.1-5.5-.1-5.5zm2.2-.7h-4.8c-.1 0-.1 0-.1.1s.6.2.8.8c.1.4.1 1 .1 1.4v9.4h1.8v-4.8c0-.2 1.3-.1 1.6-.1.6 0 1.1-.1 1.6-.1.2-.1.7-.2 1-.4.3-.2.5-.3.8-.6.4-.4.8-1.2.8-1.9v-.6c0-1-.5-1.7-1.1-2.3-.3-.3-.7-.4-1.1-.6-.1-.1-1.2-.3-1.4-.3zm6.5 6.7c0-.4.4-1.4.5-1.7.2-.4.7-.9 1.3-.9h.4c1.1 0 1.6 1.4 1.6 2.6v.4h-3.9l.1-.4zm-1.9.6v1c0 .4.3 1.3.4 1.6.3.5.5.7.9 1.1.6.6 1.8 1 3 1 1.5 0 2.1-.4 3.1-.9L87 34c-.1 0-.9.4-1 .5-.2.1-1.1.3-1.3.3h-.4c-1.9 0-2.7-1.7-2.7-3.6v-.1h5.7v-.6c0-2-1.3-3.5-3.3-3.5h-.6c-1 0-2 .7-2.5 1.2-.2.2-.6.8-.7 1.1-.2.3-.5 1.1-.5 1.5zm26.4-1.8V27.3h-2.4v.1c.5.2.7.5.7 1.3v6.6h1.6c.2 0 .1-.8.1-1v-1.1-2.3c0-.7.2-1.3.4-1.8.2-.4.8-.9 1.3-.9h.6c.3 0 .7.3.9.4l.3-1.1c-.4-.1-.5-.4-1.3-.4-.7 0-1.1.3-1.5.6-.1.1-.4.4-.5.6.1.2-.1.6-.2.7zm-9.4 1.2c0-.5.4-1.4.6-1.7.2-.4.7-.9 1.3-.9h.4c1.1 0 1.6 1.4 1.6 2.6v.5h-3.9v-.5zm-1.9.9v.8c0 .4.3 1.2.4 1.4.2.4.5.8.8 1.1.5.5 1.7 1 2.8 1h.2c.7 0 1.3-.1 1.8-.3.3-.1 1.3-.5 1.3-.7 0-.1-.1-.4-.1-.5-.2 0-.7.4-1 .5-.2.1-1 .3-1.3.3h-.5c-1.6 0-2.6-1.6-2.6-3.3V31h5.7v-.2c0-2.2-1.2-3.8-3.3-3.8h-.5c-2.1.1-3.7 2-3.7 4.1zm56.9-2.7c0-.2.1-1.3-.1-1.3h-2.2c-.1 0-.1 0-.1.1s.8.5.8 1.1v6.9h1.7v-5.7c0-.6 1.4-1.7 2.1-1.7h.4c.8 0 1.3.6 1.3 1.5v6h1.7v-5.5c0-1.8-.8-2.7-2.6-2.7-.6 0-1.3.2-1.7.5-.2.2-.4.3-.6.5-.3-.1-.6.3-.7.3zm-12.6 2.7c0 1.3.5 2.3 1.2 3 .6.6 1.7 1.3 2.9 1.3h.5c2.3 0 4.2-1.7 4.2-4V31c0-2.5-1.9-4.1-4.5-4.1-2.4 0-4.3 1.8-4.3 4.2zM36.5 15c2 0 3.6 1.6 3.6 3.6 0 .3 0 .6-.1.9-.4-1.6-1.8-2.7-3.5-2.7S33.4 18 33 19.5c-.1-.3-.1-.6-.1-.9 0-2 1.6-3.6 3.6-3.6zm-3.3 26.7c.5.8 1.5 1.6 3.3 1.4 0 0-1-1.3-1.2-3.5l5.6 2.6c.8.4 1.8.4 2.2-.6l2.1-4.5-4.9-2.2-2 4.3-3.1-1.4v-.6c1.1.2 2.2-.1 2.2-.1-1.1-.9-1.6-1.9-1.9-2.6 1 .2 2.1 0 2.6-.2-1.3-.7-1.9-1.9-2.1-2.9.6-.8.7-1.3.8-2.2 3.2 1.9 5.8 1.2 5.8 1.2L40 24.9c2-1.2 3.3-3.4 3.3-5.9 0-2.9-1.7-5.3-4.2-6.4 2.9-1.1 6.6-.3 8.9 2.1 4 3.9 2.5 12.3-2.4 15.3.1.3 1.3 0 2.1-.3 5.2-1.9 8.3-7.7 8.5-13.1C56.6 9 52.1 2.9 45.5.8c-6-1.9-13.9-.5-17.4 7.1C24.6.3 16.7-1.1 10.7.8 4.1 2.9-.3 9 0 16.6c.2 5.3 3.3 11.2 8.5 13.1.8.3 2 .6 2.1.3-4.9-3-6.4-11.4-2.5-15.5 2.3-2.4 6-3.2 8.9-2.1-2.5 1.1-4.2 3.5-4.2 6.4 0 2.5 1.3 4.7 3.3 5.9l-2.6 5.5s2.6.7 5.8-1.2c0 1 .2 1.4.8 2.2-.2 1-.8 2.2-2.1 2.9.4.2 1.5.4 2.6.2-.2.8-.8 1.7-1.9 2.6 0 0 1 .3 2 .2-1.2 2.7-.1 5.8 1.1 6.7.1-1 .4-1.8.8-2.5.6 3.4 3.5 6.9 10 6.3-2.3-.7-3.2-3.2-3.2-3.2 1.5 1.3 3.3 1.8 4.5 2-.6-1.7-.7-3.2-.7-4.7zm3.3-27.6c2.6 0 4.7 2.1 4.7 4.7s-2.1 4.7-4.7 4.7-4.7-2.1-4.7-4.7 2.1-4.7 4.7-4.7zm-8.4 14.3c-1.4 0-2.5-.5-2.5-.8 0-.3.8-.2 2.5-.2 1.6 0 2.4-.1 2.6.2.1.3-.9.8-2.6.8zm-8.3-14.3c2.6 0 4.7 2.1 4.7 4.7s-2.1 4.7-4.7 4.7-4.7-2.1-4.7-4.7c-.1-2.6 2.1-4.7 4.7-4.7zm6.7 2.8c.8-.2 1.9-.4 3.3 0 .6-2.1 2.2-3.8 4.2-4.6-1.3-1.6-3.4-2.7-5.8-2.7s-4.6 1.1-5.8 2.7c1.9.8 3.5 2.5 4.1 4.6zm3 2c-1.2-.4-2.2-.2-2.7 0 0 3.1-2 5.7-4.8 6.6.8-.1 2.1-.4 3.6-1.2 0 0-1.3 2.4-4.5 3v1.4c0 .7 0 1 .3 1.4l1.1 1.5c.2.2.1.5.1.8V37l4.7-2.2V31c-1-1-1.5-1.4-2.7-2.6-.8-.8-.5-1.6.7-1.6h5.6c1.2 0 1.5.8.7 1.6C30.5 29.6 30 30 29 31v3.7l4.7 2.2v-4.1c0-.7-.1-.9.3-1.5l.9-1.4c.3-.4.3-.6.3-1.3v-1.4c-3.2-.6-4.7-3-4.7-3 1.8 1 3.2 1.2 3.9 1.2-2.8-.8-4.9-3.4-4.9-6.5zm4 19.8l-5.3-2.5-5.3 2.5c1.3 1.3 3.2 2.1 5.3 2.1 2.1 0 4-.8 5.3-2.1zM19.8 15c2 0 3.6 1.6 3.6 3.6 0 .3 0 .6-.1.9-.4-1.6-1.8-2.7-3.5-2.7s-3.1 1.2-3.5 2.7c-.1-.3-.1-.6-.1-.9-.1-2 1.6-3.6 3.6-3.6z" fill-rule="evenodd" clip-rule="evenodd" fill="#fff"/></svg>