<svg xmlns="http://www.w3.org/2000/svg" viewBox="0 0 985.59 230.8"><g fill-rule="evenodd" clip-rule="evenodd"><path fill="#ff6e00" d="M187.14 0h20.26v20.27h-20.26z"/><path fill="#6414e6" d="M0 23.39h20.27v20.26H0z"/><path fill="#19bee6" d="M23.4 210.52h20.26v20.27H23.4z"/><path fill="#e619dc" d="M140.35 163.74h20.27v20.27h-20.27z"/><path d="M67.05 0H46.79v20.27h20.26V0zM43.66 0H23.4v20.27h20.26V0zm26.52 20.27h20.27V0H70.18v20.27zM113.84 0H93.58v20.27h20.26V0zm23.39 0h-20.26v20.27h20.26V0zm46.78 0h-20.26v20.27h20.26V0zM23.4 43.66h20.27V23.39H23.4v20.27zM0 67.05h20.27V46.79H0v20.26zm23.4.01h20.27V46.79H23.4v20.27zM0 90.44h20.27V70.17H0v20.27zm23.4.01h20.27V70.18H23.4v20.27zM0 113.83h20.27V93.57H0v20.26zm23.4.01h20.27V93.57H23.4v20.27zM0 137.22h20.27v-20.26H0v20.26zm23.4.01h20.27v-20.27H23.4v20.27zM0 160.62h20.27v-20.27H0v20.27zm23.4 0h20.27v-20.27H23.4v20.27zM0 184.01h20.27v-20.26H0v20.26zm23.4 0h20.27v-20.27H23.4v20.27zm23.39-23.39h20.27v-20.27H46.79v20.27zm0 23.39h20.27v-20.27H46.79v20.27zm23.39-23.39h20.27v-20.27H70.18v20.27zm0 23.39h20.27v-20.27H70.18v20.27zm23.39-23.39h20.27v-20.27H93.57v20.27zm0 23.39h20.27v-20.27H93.57v20.27zm23.39-23.39h20.27v-20.27h-20.27v20.27zm0 23.39h20.27v-20.27h-20.27v20.27zm46.78-23.39h20.27v-20.27h-20.27v20.27zM0 207.4h20.27v-20.26H0v20.26zm0 23.39h20.27v-20.27H0v20.27zm23.4-23.39h20.27v-20.27H23.4v20.27zM46.79 43.66h20.27V23.39H46.79v20.27zm23.39 0h20.27V23.39H70.18v20.27zm23.39 0h20.27V23.39H93.57v20.27zm23.39 0h20.27V23.39h-20.27v20.27zm23.39-23.39h20.27V0h-20.27v20.27zm0 140.35h20.27v-20.27h-20.27v20.27zm0-116.96h20.27V23.39h-20.27v20.27zm23.39 0h20.27V23.39h-20.27v20.27zm23.39 0h20.27V23.39h-20.27v20.27zm-23.39 23.39h20.27V46.78h-20.27v20.27zm23.39 0h20.27V46.78h-20.27v20.27zm23.4-20.27v20.27h20.27V46.78h-20.27zm-23.4 43.66h20.27V70.17h-20.27v20.27zm23.4 0h20.27V70.17h-20.27v20.27zm-23.4 23.4h20.27V93.57h-20.27v20.27zm23.4 0h20.27V93.57h-20.27v20.27zm-23.4 23.39h20.27v-20.27h-20.27v20.27zm0 23.39h20.27v-20.27h-20.27v20.27zm-23.39-23.39h20.27v-20.27h-20.27v20.27zm46.79 0h20.27v-20.27h-20.27v20.27z" fill="#fff"/></g><g fill-rule="evenodd" clip-rule="evenodd"><path d="M276.96 90.45h20.27V70.18h-20.27v20.27zm0 23.39h20.27V93.57h-20.27v20.27zm0 23.39h20.27v-20.27h-20.27v20.27zm0 23.39h20.27v-20.27h-20.27v20.27zm0 23.39h20.27v-20.27h-20.27v20.27zm23.39-116.95h20.27V46.79h-20.27v20.27zm0-23.4h20.27V23.39h-20.27v20.27zm23.39 23.39h20.27V46.78h-20.27v20.27zm0-23.39h20.27V23.39h-20.27v20.27zm43.66-20.27h-20.27v20.27h20.27V23.39zm-20.27-3.12h20.27V0h-20.27v20.27zm23.39 23.39h20.27V23.39h-20.27v20.27zm0-23.39h20.27V0h-20.27v20.27zm23.39 23.39h20.27V23.39h-20.27v20.27zM414.18 0h-20.26v20.27h20.26V0zm23.4 23.39h-20.27v20.27h20.27V23.39zm-20.27-3.12h20.27V0h-20.27v20.27zM300.35 90.44h20.27V70.17h-20.27v20.27zm0 23.4h20.27V93.57h-20.27v20.27zm0 23.39h20.27v-20.27h-20.27v20.27zm93.56-23.39h20.27V93.57h-20.27v20.27zm0 23.39h20.27v-20.27h-20.27v20.27zm43.67-43.66h-20.27v20.27h20.27V93.57zm0 23.38h-20.27v20.27h20.27v-20.27zm3.12-3.11h20.27V93.57H440.7v20.27zm0 23.39h20.27v-20.27H440.7v20.27zm0 46.78h20.27v-20.27H440.7v20.27zm23.39-70.17h20.27V93.57h-20.27v20.27zm0 23.39h20.27v-20.27h-20.27v20.27zM440.7 43.66h20.27V23.39H440.7v20.27zm0 23.39h20.27V46.78H440.7v20.27zm23.39-23.39h20.27V23.39h-20.27v20.27zm0 23.39h20.27V46.78h-20.27v20.27zm-163.74 93.57h20.27v-20.27h-20.27v20.27zm0 23.39h20.27v-20.27h-20.27v20.27zm23.39 0h20.27v-20.27h-20.27v20.27zm0 23.39h20.27v-20.27h-20.27v20.27zm0 23.39H344v-20.27h-20.26v20.27zm43.66-43.66h-20.27v20.27h20.27v-20.27zm-20.27 43.66h20.27v-20.27h-20.27v20.27zm23.39-23.39h20.27v-20.27h-20.27v20.27zm0 23.39h20.27v-20.27h-20.27v20.27zm23.39-23.39h20.27v-20.27h-20.27v20.27zm.01 23.39h20.26v-20.27h-20.26v20.27zm43.66-43.66h-20.27v20.27h20.27v-20.27zm-20.27 43.66h20.27v-20.27h-20.27v20.27zm23.39-23.39h20.27v-20.27H440.7v20.27zm23.39 0h20.27v-20.27h-20.27v20.27zm0-46.78h20.27v-20.27h-20.27v20.27zm0 23.39h20.27v-20.27h-20.27v20.27zm23.39-67.05v20.26h20.27v-20.26h-20.27zm0 43.66h20.27v-20.27h-20.27v20.27z" fill="#fff"/><path fill="#e61973" d="M276.96 46.78h20.27v20.27h-20.27z"/><path fill="#ffb919" d="M323.74 0H344v20.27h-20.26z"/><path fill="#1987e6" d="M300.35 187.13h20.27v20.27h-20.27z"/><path fill="#ff4b00" d="M440.69 210.52h20.27v20.27h-20.27z"/><path fill="#14e691" d="M487.48 93.57h20.27v20.26h-20.27z"/><path fill="#ff1928" d="M487.48 163.74h20.27V184h-20.27z"/></g><path d="M593.35 0h-39.44v63.11h15.77V39.44h23.67v-7.88h7.9V7.89h-7.9V0zm-7.89 23.67h-15.79v-7.9h15.79v7.9zm31.56 39.43h31.55v-7.88h7.9V7.88h-7.9V0h-31.55v7.88h-7.88v47.34h7.88v7.88zm7.88-47.34h15.79v31.58H624.9V15.76zm47.34 47.34h31.55v-7.88h7.9V39.43H695.9v7.91h-15.79V15.76h15.79v7.9h15.79V7.87h-7.9V0h-31.55v7.88h-7.88v47.34h7.88v7.88zm63.11-23.67h15.79V63.1h15.79V39.43h-7.9V23.66h7.9V0h-15.79v23.67h-15.79V0h-15.77v63.11h15.77V39.43zm86.8 7.91h-31.57v-7.91h23.67V23.66h-23.67v-7.9h31.57V0h-47.34v63.11h47.34V47.34zM830.03 0v15.77h15.77v47.34h15.79V15.77h15.79V0h-47.35zM577.58 123.28h7.88v7.91h-15.79V99.61h23.67V83.84h-31.55v7.88h-7.88v47.34h7.88v7.88h31.55v-7.88h7.9v-31.55h-23.67l.01 15.77zm70.99-39.44h-31.55v7.88h-7.88v55.22h15.77v-15.77h15.79v15.77h15.79V91.72h-7.9v-7.88h-.02zm-7.88 31.55H624.9V99.6h15.79v15.79zm63.11-15.78h-7.88v7.9h-7.88v-7.9h-7.91v-7.88h-7.88v-7.88h-7.88v63.11h15.77v-23.67h7.91v7.91h7.88v-7.91h7.88v23.67h15.79V83.85h-7.88v7.88h-7.9v7.88h-.02zm23.67 47.34h47.34v-15.77h-31.57v-7.91h23.67V107.5h-23.67v-7.9h31.57V83.83h-47.34v63.12zm63.1-55.23h-7.88v23.67h7.88v7.88h23.67v7.91h-31.55v15.77h39.44v-7.88h7.9V115.4h-7.9v-7.88h-23.67v-7.9h31.58V83.85h-39.46l-.01 7.87zm-228.78 83.85h-7.88v23.67h7.88v7.88h23.67v7.91h-31.55v15.77h39.44v-7.88h7.9v-23.67h-7.9v-7.88h-23.67v-7.9h31.58V167.7H561.8v7.87h-.01zm86.78-7.88h-31.55v7.88h-7.88v47.34h7.88v7.88h31.55v-7.88h7.9v-47.34h-7.9v-7.88zm-7.88 47.34H624.9v-31.58h15.79v31.58zm23.67 15.76h15.77v-23.67h23.67v-15.77h-23.67v-7.9h31.58v-15.77h-47.34v63.11h-.01zm55.22-47.34h15.76v47.34h15.79v-47.34h15.79v-15.77h-47.34v15.77z" fill="#fff"/><g><path d="M925.89 39.43V5.98h-9.97V0h25.81v5.98h-9.74v33.45h-6.1zm21.15 0V0h6.65l12.85 25.37L978.95 0h6.64v39.43h-6.09V12.51l-9.38 19.27h-6.84l-10.15-20.05v27.69l-6.09.01z" fill="#fff"/></g></svg>